<?xml version="1.0" standalone="no"?>
<!DOCTYPE svg PUBLIC "-//W3C//DTD SVG 20010904//EN"
 "http://www.w3.org/TR/2001/REC-SVG-20010904/DTD/svg10.dtd">
<svg version="1.0" xmlns="http://www.w3.org/2000/svg"
 width="2000.000000pt" height="580.000000pt" viewBox="0 0 2000.000000 580.000000"
 preserveAspectRatio="xMidYMid meet">

<g transform="translate(0.000000,580.000000) scale(0.100000,-0.100000)"
fill="#000000" stroke="none">
<path d="M14180 2900 l0 -2900 790 0 790 0 0 2900 0 2900 -790 0 -790 0 0
-2900z"/>
<path d="M16110 2900 l0 -2890 790 0 790 0 0 2890 0 2890 -790 0 -790 0 0
-2890z"/>
<path d="M5900 3385 l0 -1615 195 0 195 0 2 577 3 577 585 -602 584 -603 133
133 133 133 -534 535 -534 535 439 388 439 388 -112 124 -113 123 -25 -23
c-14 -12 -244 -221 -512 -464 l-488 -441 -2 922 -3 923 -192 3 -193 2 0 -1615z"/>
<path d="M2301 4956 c-48 -17 -108 -71 -132 -119 -27 -53 -36 -152 -19 -213
19 -66 78 -136 141 -168 60 -29 151 -35 221 -14 53 16 132 88 153 140 26 64
24 173 -4 231 -28 58 -106 129 -159 145 -50 15 -157 14 -201 -2z"/>
<path d="M30 3295 l0 -1525 905 0 905 0 0 180 0 180 -700 0 -700 0 0 1345 0
1345 -205 0 -205 0 0 -1525z"/>
<path d="M8110 3789 c0 -880 2 -1047 16 -1136 58 -397 244 -670 559 -824 317
-154 774 -154 1090 0 301 147 492 411 569 785 30 141 36 359 36 1289 l0 917
-199 0 -200 0 -4 -1012 c-5 -1114 -3 -1077 -68 -1273 -63 -188 -165 -312 -324
-391 -99 -49 -194 -67 -350 -67 -150 0 -246 21 -347 75 -194 103 -321 325
-358 628 -6 53 -10 447 -10 1062 l0 978 -205 0 -205 0 0 -1031z"/>
<path d="M4360 4084 c-81 -10 -183 -35 -240 -58 -124 -51 -292 -185 -385 -307
l-45 -61 0 186 0 186 -190 0 -190 0 0 -1130 0 -1130 195 0 195 0 0 749 0 749
58 79 c71 95 239 256 315 302 31 18 85 45 119 60 57 23 75 26 188 26 117 0
129 -2 187 -29 110 -51 201 -171 240 -318 14 -56 17 -156 20 -840 l4 -778 195
0 194 0 0 743 c0 419 -4 788 -10 848 -36 380 -216 621 -522 698 -76 20 -260
33 -328 25z"/>
<path d="M12062 4080 c-93 -13 -165 -36 -261 -85 -108 -54 -192 -117 -274
-205 l-64 -69 -23 55 c-46 113 -164 206 -301 239 -60 14 -179 21 -179 10 0 -5
-65 -244 -75 -274 -5 -16 2 -19 40 -23 106 -12 186 -85 205 -187 6 -34 10
-538 10 -1397 l0 -1344 195 0 195 0 0 590 0 590 63 -51 c78 -64 277 -163 382
-190 114 -30 317 -30 429 0 371 99 655 428 753 873 15 68 18 126 17 323 0 236
-1 242 -31 357 -68 253 -200 462 -383 600 -86 66 -245 142 -350 167 -99 24
-258 34 -348 21z m233 -364 c207 -66 379 -257 449 -498 50 -173 52 -426 5
-612 -55 -220 -202 -412 -376 -493 -240 -111 -566 -41 -790 170 l-53 50 0 564
0 563 63 63 c203 203 455 272 702 193z"/>
<path d="M2220 2900 l0 -1130 195 0 195 0 0 1130 0 1130 -195 0 -195 0 0
-1130z"/>
</g>
</svg>
